<svg width="370" height="376" viewBox="0 0 370 376" fill="none" xmlns="http://www.w3.org/2000/svg">
<mask id="mask0_12_622" style="mask-type:luminance" maskUnits="userSpaceOnUse" x="18" y="6" width="342" height="370">
<path d="M18.1735 6.71313H359.845V376H18.1735V6.71313Z" fill="white"/>
</mask>
<g mask="url(#mask0_12_622)">
<path d="M223.886 144.335C224.871 143.756 225.795 143.017 226.768 142.081C228.689 140.098 229.847 138.226 231.128 135.787C232.84 132.412 234.269 128.63 236.511 125.539C236.597 125.416 236.696 125.292 236.782 125.169C237.127 124.726 237.484 124.282 237.866 123.864C235.168 125.625 233.161 128.113 231.214 130.663C230.34 131.808 229.49 132.954 228.591 134.062C227.125 135.787 225.795 137.203 223.873 138.423C223.368 138.718 222.9 138.952 222.445 139.149C222.235 139.236 222.038 139.31 221.841 139.371C224.6 129.579 224.502 119.885 223.96 109.428C223.331 120.994 222.075 132.326 215.448 142.118C211.334 148.19 207.959 150.136 202.429 154.472C200.988 155.655 199.793 156.714 198.684 157.896C194.755 151.085 190.222 148.067 190.567 133.939C188.473 143.756 189.274 148.905 190.518 153.462C193.326 163.759 193.24 163.07 191.848 173.047C189.976 186.571 196.11 202.153 196.147 215.616C202.404 234.079 208.23 235.681 213.182 254.908C215.042 240.755 214.143 227.65 218.971 213.423C220.548 208.853 222.358 204.013 224.662 199.739C228.529 192.521 234.7 188.764 242.214 187.249C238.851 188.998 234.811 190.451 232.249 193.37C244.111 189.651 254.975 197.669 264.447 205.06C274.399 212.832 279.277 215.591 291.914 218.843C298.073 220.148 300.709 219.028 305.488 223.979C307.077 225.568 308.814 226.578 310.834 227.526C313.396 228.61 315.601 229.214 318.347 229.571C321.291 229.854 323.595 229.744 326.44 228.931C329.347 227.958 331.244 226.714 333.288 224.398C331.047 226.356 329.088 227.292 326.181 227.81C323.496 228.192 321.378 228.007 318.754 227.366C316.364 226.726 314.468 225.938 312.361 224.632C308.666 222.341 308.309 219.927 305.821 218.116C311.955 216.318 317.879 213.152 323.644 210.381C328.719 207.979 333.141 206.02 338.708 204.936C344.583 204.013 348.71 204.542 354.006 207.338C354.327 207.4 356.248 208.964 356.691 209.248C357.135 209.555 357.541 209.814 358.046 210.024C358.33 210.171 358.884 210.27 359.204 210.221C358.798 210.208 358.477 210.073 358.108 209.876C357.874 209.814 357.135 209.161 356.901 208.977C356.063 208.237 355.287 207.412 354.376 206.747C349.079 203.249 344.744 202.227 338.449 202.498C332.451 202.978 327.684 204.493 322.055 206.464C316.919 208.287 311.955 210.233 306.634 211.526C296.644 213.768 285.608 210.294 278.291 203.286C281.679 203.126 285.706 202.695 290.707 201.968C293.602 201.414 295.56 200.49 297.913 198.728C299.982 197.078 301.448 195.44 303.099 193.395C306.276 189.256 308.826 185.266 312.447 181.423C316.956 176.828 320.774 174.636 327.105 173.342C336.947 171.495 345.63 173.7 354.942 176.877C345.557 172.69 337.095 169.647 326.699 169.943C319.296 170.694 314.578 172.727 308.74 177.284C304.49 180.893 301.473 184.576 297.617 188.431C296.25 189.786 294.969 190.956 293.306 191.942C292.038 192.644 291.077 192.989 289.623 193.063C269.398 194.344 274.362 190.808 259.076 183.59C270.593 180.055 281.531 178.836 292.419 172.776C294.612 171.446 296.361 170.14 297.938 168.576C303.702 162.848 301.657 161.247 310.489 157.108C315.662 154.965 320.109 154.177 325.492 152.969C331.244 151.627 335.161 150.407 340.001 146.835C346.062 141.748 349.042 135.972 352.035 128.717C348.685 135.54 345.335 141.046 338.93 145.32C334.163 148.277 330.394 149.065 324.937 149.841C319.123 150.617 314.591 151.036 308.9 152.871C307.828 153.24 306.831 153.635 305.87 154.041C307.496 147.291 307.594 141.477 307.311 134.456C307.163 131.032 306.831 127.633 306.855 124.208C306.954 121.154 307.25 118.85 308.691 116.104C310.698 112.729 312.608 110.807 316.069 108.96C319.382 107.346 322.4 106.681 325.984 105.954C335.173 104.057 340.753 102.961 347.995 96.3835C340.408 102.32 334.84 102.887 325.664 103.922C321.759 104.39 318.582 104.833 314.874 106.262C310.588 108.073 308.087 110.204 305.402 114.034C303.308 117.311 302.643 120.07 302.212 123.901C301.879 127.436 301.916 130.909 301.793 134.456C301.497 141.034 300.992 146.651 298.763 152.908C297.691 155.679 296.595 157.724 294.71 160.015C292.74 162.269 290.954 163.599 288.281 164.942C280.225 168.539 272.059 169.438 263.449 170.854C260.333 171.384 257.45 171.914 254.716 172.566C258.042 169.118 260.493 165.324 262.538 159.953C265.9 148.609 264.311 138.731 261.552 127.448C259.643 119.7 264.04 114.613 270.852 111.632C274.436 110.056 278.254 108.96 282.024 107.937C322.018 98.9579 315.97 84.4234 333.535 78.2893C319.801 80.9868 317.83 91.0255 297.42 97.8986C297.556 97.6522 297.691 97.3935 297.827 97.1226C300.032 92.3557 300.426 88.1925 301.017 83.0685C301.571 78.2893 302.027 74.3108 304.318 69.9874C305.636 67.7457 306.929 66.3661 309.036 64.8634C311.795 62.9788 314.295 62.1166 317.51 61.3653C314.172 61.8456 311.561 62.4985 308.568 64.0751C306.153 65.4793 304.614 66.8342 302.951 69.0883C300.032 73.4609 299.132 77.5133 298.036 82.5511C297.088 86.9607 296.324 91.0255 293.996 94.9424C292.826 96.7284 291.754 97.8493 289.981 99.0194C287.69 100.387 285.67 100.978 283.058 101.458C281.876 101.668 280.693 101.877 279.523 102.086L279.265 102.136C273.18 103.257 267.354 104.562 261.638 107.346C260.813 107.802 260.062 108.257 259.347 108.713C259.581 105.412 260.21 102.013 261.367 98.3543C264.521 90.0278 268.696 84.8545 274.436 78.2401C280.324 71.5271 285.411 66.1074 289.968 58.2736C295.043 48.6414 296.275 41.1894 295.56 30.3378C295.523 40.9677 293.75 48.1118 287.948 57.0049C282.91 64.2106 277.454 69.1129 271.209 75.1238C268.093 78.1785 265.395 80.9006 263.006 83.7952C261.835 71.4039 254.888 71.9582 260.616 52.4968C262.821 46.2519 265.469 44.0963 268.635 38.8245C270.088 36.2009 270.741 34.2301 271 31.237C271.135 27.123 270.297 23.7234 269.078 19.8311C270.039 23.7111 270.63 27.1353 270.076 31.1385C269.645 33.9222 268.893 35.6712 267.329 37.9869C263.474 43.2957 260.801 44.9093 257.968 51.5237C250.91 71.6872 257.143 72.3031 257.414 84.0538C257.561 90.7545 256.638 92.3065 254.445 98.0464C252.314 103.602 251.353 108.738 251.206 114.01C242.559 104.328 235.526 104.538 233.629 70.6156C232.027 109.92 241.068 106.336 248.89 123.703C253.435 133.767 256.206 145.185 251.711 155.741C249.062 161.345 245.712 164.03 240.6 167.295C234.466 171.051 228.529 173.897 222.531 178.109C216.064 182.408 211.384 186.756 207.356 193.457C207.097 184.256 200.963 177.382 203.279 168.354C203.993 165.533 205.422 163.291 207.935 160.483C209.745 158.488 211.285 156.874 212.701 155.322C213.995 153.906 215.165 152.526 216.31 150.937C219.341 146.749 219.673 146.835 223.886 144.335ZM186.613 357.573C186.724 358.522 186.17 359.396 186.158 360.32C186.133 360.948 186.33 361.601 186.244 362.303C186.108 363.116 185.862 364.545 185.665 365.235C185.505 365.777 185.406 366.479 185.123 366.836C184.716 367.341 184.322 367.797 183.596 368.277C183.965 367.021 184.174 365.937 184.236 364.816C184.285 363.978 183.83 362.636 183.706 361.675C183.546 360.554 183.596 359.655 183.386 358.842C183.238 358.263 182.881 357.77 182.536 357.019C181.058 353.915 179.716 352.585 178.164 350.774C177.289 349.752 176.575 348.212 175.158 346.993C171.081 343.507 167.46 343.778 163.986 345.231C162.016 346.044 160.451 346.722 159.17 347.264C156.005 348.606 154.502 350.639 152.765 352.203C151.016 353.792 149.033 354.925 147.74 357.98C146.841 360.283 146.138 361.613 146.483 364.064C146.717 365.641 147.382 366.713 147.949 368.006C148.577 369.435 149.132 371.073 150.117 372.502C148.085 371.344 146.57 369.817 145.264 368.018C144.673 367.193 144.315 365.912 143.786 364.914C142.468 361.958 142.037 359.618 142.234 356.391C142.862 349.973 137.541 349.641 132.713 351.033C129.104 352.08 126.061 353.213 122.982 353.225C116.281 353.237 108.792 349.887 102.338 350.281C91.203 350.959 88.4439 368.942 70.8917 364.459C82.7656 362.352 84.7733 350.774 88.4685 346.808C97.8174 336.769 113.953 342.176 123.622 336.24C126.16 335.451 127.256 332.766 131.653 332.002C137.282 331.005 144.205 332.717 150.068 330.118C153.012 328.824 154.674 326.78 162.373 324.021C182.98 316.63 180.393 311.161 181.908 308.525C183.854 301.16 183.497 295.21 183.275 288.177C183.152 284.199 182.696 280.577 182.191 276.094C180.923 264.602 176.513 255.721 175.983 242.948C182.881 247.665 192.033 254.403 198.068 261.966C189.828 247.825 179.703 245.017 169.517 226.295C168.507 224.435 167.472 222.587 166.401 220.752C158.825 208.201 140.251 188.099 123.709 195.366C117.488 198.211 112.266 201.106 105.664 203.212C97.1892 206.525 91.979 211.095 83.9973 216.909C71.8524 225.272 63.7846 228.216 48.9052 228.992C63.181 226.652 70.4359 222.784 80.6963 212.844C83.7017 209.9 86.2145 207.289 88.6656 204.936C82.4946 204.604 76.4714 203.471 69.3274 202.818C59.9908 202.14 52.354 202.411 43.0421 200.157C37.9797 198.741 34.383 197.127 30.0966 194.023C25.2682 190.193 22.3982 186.51 19.3435 181.152C22.7801 186.091 25.9333 189.441 31.0573 192.607C35.3438 195.132 38.8296 196.29 43.7073 197.115C52.8098 198.359 60.4589 197.324 69.4998 196.992C80.5485 196.869 90.8951 198.445 101.488 194.725C107.893 192.126 112.66 188.665 118.523 185.167C122.723 182.753 126.258 181.078 130.114 180.117C127.133 169.635 122.292 165.361 111.367 163.353C109.002 162.922 106.587 162.626 104.05 162.343C100.01 161.949 95.9575 161.69 91.9174 161.358C82.3468 161.776 73.9217 164.203 63.3165 166.297C56.271 167.603 50.6666 168.292 43.4855 167.405C35.5532 166.112 30.4045 163.525 24.1473 158.475C30.5893 163.02 35.7995 165.188 43.658 165.816C50.6173 166.137 55.9753 165.053 62.639 163.291C67.8246 161.838 72.4067 160.385 76.8286 159.14C74.3529 158.426 71.9879 157.391 69.7215 155.778C64.1171 151.159 61.3827 145.333 57.0716 139.617C54.8052 136.748 52.8591 134.752 49.6812 132.868C45.8135 130.749 42.5741 130.195 38.1768 130.269C37.1051 130.318 36.3168 130.638 35.4177 131.229C36.2799 130.54 37.0682 130.158 38.1644 129.998C42.7095 129.591 46.0599 129.887 50.2847 131.697C53.8321 133.422 56.0739 135.343 58.7468 138.201C63.0455 143.017 66.6791 148.991 71.951 152.588C76.065 154.928 80.8811 155.285 85.5247 155.519C91.8435 155.704 98.15 155.47 104.481 155.581C108.891 155.704 112.832 155.926 116.811 156.615C115.986 155.963 115.111 155.31 114.163 154.657C110.775 152.625 108.681 150.592 106.686 147.156C105.06 144.138 104.358 141.625 103.804 138.263C103.028 132.547 103.188 126.968 102.498 121.252C102.141 118.666 101.697 116.584 100.761 114.182C98.7043 109.994 95.6003 106.213 91.8928 103.897C90.427 102.973 88.8627 102.197 87.089 101.409C81.8172 99.1426 76.9888 98.0094 71.3474 97.061C48.3386 94.4251 48.4371 104.501 27.5346 100.128C49.1515 103.121 46.6881 91.7152 71.8401 93.0702C77.9372 93.6244 83.1844 94.4251 89.0598 96.2357C90.1314 96.6052 91.1414 96.9871 92.1022 97.3935C91.745 94.7823 91.7203 92.3804 91.6834 89.3996C91.6341 86.0862 91.5725 83.5242 90.3777 80.3833C88.6779 76.257 85.9312 73.892 82.3222 71.4162C78.2082 68.5586 76.0773 67.4377 72.7885 63.2745C70.8424 60.4784 69.7708 58.0888 68.7854 54.8247C67.6522 50.3782 67.3689 46.5721 67.3812 41.9901C67.8123 46.4859 68.4898 50.1565 70.2142 54.3321C71.4213 57.2389 72.6407 59.3329 74.784 61.6362C78.0481 65.0482 80.2898 66.0089 84.3669 67.9674C89.1583 70.6279 92.5702 73.153 95.4402 77.9075C97.4479 81.7382 97.9652 84.7067 98.5442 88.9192C100.01 99.7954 102.289 101.791 107.314 110.573C108.928 113.702 109.802 116.375 110.591 119.811C111.748 125.379 112.081 130.995 113.35 136.427C113.867 138.423 114.397 140.049 115.567 141.761C117.932 144.976 126.172 148.843 130.385 152.772C130.84 151.282 131.358 149.792 131.949 148.326C133.304 144.52 134.843 140.788 136.014 136.92C137.036 133.249 137.467 130.552 136.987 126.746C135.632 119.897 133.525 117.286 129.177 112.125C127.207 109.846 125.741 108.036 124.374 105.301C122.871 101.926 122.514 99.2781 122.575 95.6075C123.043 99.0933 123.819 101.557 125.876 104.414C127.576 106.669 129.251 108.073 131.432 109.809C137.689 114.613 140.682 117.385 143.466 125.108C145.018 129.936 145.215 133.57 144.796 138.583C144.377 142.894 143.527 146.983 142.837 151.233C141.593 160.877 141.975 166.494 146.028 175.153C148.319 178.22 151.213 181.324 155.389 184.477C161.547 188.209 166.351 191.018 171.29 197.94C171.18 197.103 171.069 196.265 170.97 195.403C169.246 172.332 163.432 168.157 168.088 140.726C168.482 139.051 168.926 137.487 169.418 135.984C170.071 133.631 171.118 131.599 171.241 128.901C171.106 122.558 167.952 114.736 165.169 109.132C163.272 105.511 161.4 102.518 158.641 99.4875C157.495 98.305 156.448 97.3689 155.044 96.4697C153.886 95.7553 152.913 95.3242 151.583 95.0532C146.422 93.8585 138.613 90.077 133.858 87.6505C130.311 85.766 127.059 83.8691 123.807 81.4918C122.44 80.4818 121.245 79.4964 120.05 78.2647C119.016 77.1684 118.24 76.1954 117.698 74.7789C114.36 65.8734 110.122 62.4492 108.965 51.6961C108.817 49.8116 108.312 48.5059 107.289 46.9293C106.144 45.2788 104.974 44.1949 103.348 43.037C100.084 40.8692 96.832 39.6374 92.9028 39.3788C96.9183 39.2926 100.33 40.3518 103.816 42.3103C105.651 43.4312 106.969 44.4905 108.336 46.1656C109.654 47.8901 110.344 49.3682 110.677 51.536C112.401 61.3653 116.946 65.2452 120.986 73.4732C121.405 74.2862 122.046 74.939 122.699 75.5425C123.795 76.5033 124.916 77.2916 126.147 78.0799C129.362 80.0507 132.589 81.6273 136.026 83.1424C139.352 84.6081 148.947 88.6113 152.408 88.7344C153.504 88.8576 154.453 89.0547 155.376 89.3503C155.056 86.2587 155.364 83.4626 155.894 80.2108C156.559 76.5526 157.458 73.0175 158.234 69.3839C158.702 67.0066 159.281 64.149 158.825 61.7348C156.547 53.1126 153.935 44.4905 148.627 37.2109C145.412 33.3802 142.985 31.6681 138.366 29.919C135.213 28.7982 132.208 28.3547 129.818 25.4971C135.275 29.3401 142.098 26.7658 150.351 35.7575C154.453 40.4381 157.224 45.8084 159.417 51.4744C162.25 58.8033 163.715 62.1905 162.557 70.1599C162.016 73.7689 161.313 77.3162 160.882 80.9499C160.537 84.177 160.353 87.1578 161.227 90.3234C161.609 91.5674 162.04 92.4666 162.865 93.4766C166.487 97.5906 169.184 100.251 172.214 105.166C174.641 109.341 176.883 113.825 178.545 118.481C178.816 118.099 179.075 117.705 179.346 117.311C190.727 101.791 194.706 105.24 193.462 88.0816C192.846 79.4225 189.04 61.316 176.636 68.2014C188.486 59.5177 194.262 72.5248 196.689 81.0607C197.797 85.0146 198.549 88.9931 198.771 93.5259C200.384 90.2495 202.761 80.6296 203.02 77.0822C203.439 68.6079 202.219 62.1413 199.399 54.1596C197.021 47.6068 195.235 42.3965 194.755 35.351C194.57 27.086 196.443 21.4816 200.433 14.3129C196.997 21.5555 195.556 27.1723 196.467 35.2032C197.465 41.9161 199.62 46.8308 202.392 52.9279C205.594 60.2197 207.38 66.3415 208.033 73.8674C208.883 72.6972 209.77 71.5394 210.681 70.3939C215.608 64.3461 220.991 58.8279 225.881 52.7554C230.648 46.5967 233.764 41.5959 235.193 33.799C235.809 29.5372 235.624 26.2854 234.762 22.0729C233.579 16.7395 231.818 12.6501 229.219 7.85864C232.114 12.5392 234.146 16.5547 235.747 21.8265C236.893 26.1622 237.299 29.5495 236.967 34.0207C235.981 42.3596 233.087 47.8531 228.455 54.6893C228.271 54.9602 228.074 55.2312 227.876 55.5022C230.34 54.5168 232.779 53.7285 235.341 52.8416C238.74 51.6592 241.549 50.5999 244.554 48.5429C247.769 46.178 249.407 43.9239 250.762 40.1671C249.604 44.0717 248.077 46.4736 244.973 49.0972C242.017 51.4005 239.233 52.6692 235.821 54.1103C222.765 59.5423 223.048 61.1805 214.451 73.2638C206.986 84.1277 208.551 87.9585 203.968 98.576C199.078 108.467 192.6 113.48 187.118 122.385C183.214 129.135 180.27 134.863 179.112 142.697C176.525 166.863 182.253 172.566 186.392 193.74C192.107 221.651 201.579 232.946 208.514 246.84C211.482 252.752 214.327 258.332 215.534 267.509C216.298 273.249 214.943 277.055 217.173 284.913C219.02 291.454 220.622 298.844 220.856 306.53C213.379 301.862 205.816 292.057 202.921 282.129C204.597 289.729 206.309 294.73 210.915 301.036C213.909 304.867 217.555 307.934 221.016 311.457C222.26 312.726 223.344 314.462 224.551 315.731L224.575 315.706L224.871 316.014C227.039 318.244 231.091 320.855 239.923 324.021C247.621 326.78 249.272 328.824 252.216 330.118C258.091 332.717 265.001 331.005 270.63 332.002C275.04 332.766 276.124 335.451 278.673 336.24C288.33 342.176 304.478 336.769 313.815 346.808C317.51 350.774 319.53 362.352 331.404 364.459C313.839 368.942 311.08 350.959 299.945 350.281C291.274 349.764 280.718 355.984 272.712 351.71C262.55 346.278 258.731 361.379 249.752 361.047C221.484 360.024 233.296 367.39 208.009 376C221.016 368.523 220.227 360.135 233.222 353.706C250.885 344.948 228.369 336.042 223.812 347.276C217.604 362.562 205.323 342.14 197.12 340.206C193.117 339.27 187.266 344.628 193.93 348.742C198.475 351.55 206.543 353.89 206.728 360.813C204.769 358.596 202.86 357.117 201 356.132C200.15 355.676 199.263 355.578 198.413 355.307C197.674 355.06 196.972 354.605 196.233 354.469C195.396 354.297 194.546 353.927 193.708 353.853C192.747 353.755 191.799 353.964 190.826 353.915C190.025 353.866 189.569 354.001 189.188 354.272C188.695 354.629 187.734 354.617 187.155 355.356C186.736 355.873 186.564 357.13 186.613 357.573Z" fill="white"/>
</g>
<path fill-rule="evenodd" clip-rule="evenodd" d="M133.932 198.31C116.565 199.209 123.413 217.894 117.107 224.016C117.107 224.016 141.865 217.131 137.073 200.219L129.671 208.336L133.932 198.31Z" fill="white"/>
<path fill-rule="evenodd" clip-rule="evenodd" d="M104.223 207.117C95.0096 212.807 104.297 220.949 102.659 226.184C102.659 226.184 114.126 215 106.489 207.215L104.876 213.854L104.223 207.117Z" fill="white"/>
<path fill-rule="evenodd" clip-rule="evenodd" d="M85.8332 218.72C76.1148 223.523 84.6014 232.515 82.4829 237.553C82.4829 237.553 94.9603 227.514 88.0873 219.04L85.8455 225.494L85.8332 218.72Z" fill="white"/>
<path fill-rule="evenodd" clip-rule="evenodd" d="M65.4351 228.832C54.6205 229.226 58.7098 240.915 54.719 244.648C54.719 244.648 70.1896 240.595 67.3566 230.039L62.6883 235.015L65.4351 228.832Z" fill="white"/>
<path fill-rule="evenodd" clip-rule="evenodd" d="M45.5181 228.216C39.1377 219.434 31.7842 229.374 26.4755 228.155C26.4755 228.155 38.4726 238.772 45.592 230.507L38.879 229.399L45.5181 228.216Z" fill="white"/>
<path fill-rule="evenodd" clip-rule="evenodd" d="M68.5391 214.741C63.8585 200.884 50.4449 210.713 44.1138 206.993C44.1138 206.993 55.2856 225.457 67.7262 217.71L59.5474 213.596L68.5391 214.741Z" fill="white"/>
<path fill-rule="evenodd" clip-rule="evenodd" d="M34.1983 201.598C22.583 192.779 16.991 208.471 9.67444 208.976C9.67444 208.976 29.2344 217.944 35.196 204.505L26.1181 205.712L34.1983 201.598Z" fill="white"/>
<mask id="mask1_12_622" style="mask-type:luminance" maskUnits="userSpaceOnUse" x="0" y="181" width="21" height="14">
<path d="M0.535156 181.977H20.7972V194.59H0.535156V181.977Z" fill="white"/>
</mask>
<g mask="url(#mask1_12_622)">
<path fill-rule="evenodd" clip-rule="evenodd" d="M19.5532 189.54C14.3799 180.08 5.90556 188.924 0.830811 187.039C0.830811 187.039 11.2883 199.012 19.3438 191.794L12.8772 189.848L19.5532 189.54Z" fill="white"/>
</g>
<path fill-rule="evenodd" clip-rule="evenodd" d="M120.863 174.845C113.436 161.235 101.217 173.971 93.9252 171.261C93.9252 171.261 108.977 188.493 120.568 178.097L111.256 175.301L120.863 174.845Z" fill="white"/>
<path fill-rule="evenodd" clip-rule="evenodd" d="M100.416 190.698C100.293 179.92 88.678 183.714 85.0936 179.661C85.0936 179.661 88.7026 195.157 99.1847 192.595L94.3932 187.828L100.416 190.698Z" fill="white"/>
<path fill-rule="evenodd" clip-rule="evenodd" d="M80.7457 192.816C79.9204 184.564 71.2736 188.259 68.2435 185.389C68.2435 185.389 72.0619 197.029 79.9204 194.356L75.9296 191.03L80.7457 192.816Z" fill="white"/>
<path fill-rule="evenodd" clip-rule="evenodd" d="M61.7896 194.319C61.7034 186.965 53.7833 189.552 51.3322 186.781C51.3322 186.781 53.8079 197.349 60.952 195.6L57.6756 192.348L61.7896 194.319Z" fill="white"/>
<path fill-rule="evenodd" clip-rule="evenodd" d="M44.2495 193.247C47.3534 183.738 36.0091 183.566 34.063 178.922C34.063 178.922 32.6219 193.629 42.5989 194.528L39.8029 188.899L44.2495 193.247Z" fill="white"/>
<path fill-rule="evenodd" clip-rule="evenodd" d="M19.3439 178.503C23.6796 170.325 13.3577 168.378 12.3107 163.833C12.3107 163.833 8.68942 177.013 17.6318 179.427L15.9813 173.835L19.3439 178.503Z" fill="white"/>
<path fill-rule="evenodd" clip-rule="evenodd" d="M27.5966 186.214C32.1663 181.891 25.9461 178.368 26.254 175.202C26.254 175.202 21.0561 182.913 26.2909 186.436L26.4388 182.47L27.5966 186.214Z" fill="white"/>
<path fill-rule="evenodd" clip-rule="evenodd" d="M88.0254 163.71C78.8243 164.252 82.5319 174.131 79.2062 177.382C79.2062 177.382 92.2995 173.65 89.6883 164.708L85.8083 169.031L88.0254 163.71Z" fill="white"/>
<path fill-rule="evenodd" clip-rule="evenodd" d="M69.6601 167.098C58.6854 167.738 63.1073 179.526 59.1411 183.418C59.1411 183.418 74.7595 178.959 71.6556 168.28L67.0119 173.453L69.6601 167.098Z" fill="white"/>
<path fill-rule="evenodd" clip-rule="evenodd" d="M52.4403 169.98C44.4341 168.107 45.1115 177.481 41.4532 179.427C41.4532 179.427 53.5859 179.563 53.6105 171.261L49.2009 173.971L52.4403 169.98Z" fill="white"/>
<path fill-rule="evenodd" clip-rule="evenodd" d="M36.6002 167.676C31.1313 164.252 29.2837 171.396 26.0812 171.901C26.0812 171.901 35.0605 175.067 37.1545 168.908L33.2006 169.82L36.6002 167.676Z" fill="white"/>
<path fill-rule="evenodd" clip-rule="evenodd" d="M23.9137 157.182C24.973 150.802 17.7058 151.824 16.006 149.04C16.006 149.04 16.5233 158.586 22.9899 158.167L20.6496 154.854L23.9137 157.182Z" fill="white"/>
<path fill-rule="evenodd" clip-rule="evenodd" d="M26.882 163.698C23.7164 158.808 19.4916 163.92 16.6832 163.107C16.6832 163.107 22.7926 169.154 26.8574 164.93L23.2853 164.141L26.882 163.698Z" fill="white"/>
<path fill-rule="evenodd" clip-rule="evenodd" d="M65.9529 155.704C60.2869 148.745 54.6702 157.293 50.2236 156.517C50.2236 156.517 60.6072 164.745 66.1253 157.601L60.5209 156.985L65.9529 155.704Z" fill="white"/>
<path fill-rule="evenodd" clip-rule="evenodd" d="M59.2395 146.515C55.3349 140.246 49.8783 146.638 46.3309 145.554C46.3309 145.554 53.9554 153.327 59.1903 148.067L54.6821 146.996L59.2395 146.515Z" fill="white"/>
<path fill-rule="evenodd" clip-rule="evenodd" d="M53.9433 138.337C50.322 134.21 47.0825 139.568 44.3604 139.211C44.3604 139.211 50.8886 143.978 54.0911 139.482L50.6545 139.248L53.9433 138.337Z" fill="white"/>
<path fill-rule="evenodd" clip-rule="evenodd" d="M44.9639 132.338C40.468 129.209 38.5958 135.183 35.8613 135.479C35.8613 135.479 43.338 138.546 45.3826 133.422L41.9831 134.013L44.9639 132.338Z" fill="white"/>
<path fill-rule="evenodd" clip-rule="evenodd" d="M53.5983 162.7C53.1672 156.862 46.9962 159.3 44.9146 157.207C44.9146 157.207 47.378 165.496 52.9824 163.772L50.2233 161.345L53.5983 162.7Z" fill="white"/>
<path fill-rule="evenodd" clip-rule="evenodd" d="M42.2784 163.39C44.0151 157.798 37.376 157.798 36.2059 155.088C36.2059 155.088 35.4792 163.71 41.3299 164.154L39.6424 160.877L42.2784 163.39Z" fill="white"/>
<path fill-rule="evenodd" clip-rule="evenodd" d="M31.3288 160.114C33.6075 156.197 28.6066 155.027 28.1878 152.785C28.1878 152.785 26.1432 159.153 30.4666 160.52L29.7768 157.761L31.3288 160.114Z" fill="white"/>
<path fill-rule="evenodd" clip-rule="evenodd" d="M101.969 148.215C100.872 134.826 86.7566 140.554 81.9406 135.836C81.9406 135.836 87.779 154.793 100.589 150.679L94.221 145.173L101.969 148.215Z" fill="white"/>
<path fill-rule="evenodd" clip-rule="evenodd" d="M80.5365 153.068C84.9338 145.776 75.548 143.448 74.8336 139.211C74.8336 139.211 70.8181 151.146 78.9229 153.819L77.6789 148.609L80.5365 153.068Z" fill="white"/>
<path fill-rule="evenodd" clip-rule="evenodd" d="M67.6774 144.039C74.4026 138.854 66.5072 133.249 67.3694 129.037C67.3694 129.037 59.3139 138.693 65.8913 144.15L66.6304 138.829L67.6774 144.039Z" fill="white"/>
<path fill-rule="evenodd" clip-rule="evenodd" d="M57.4414 134.666C50.4821 132.116 55.5938 125.366 53.7831 122.078C53.7831 122.078 63.0211 128.002 58.9564 134.284L56.961 130.047L57.4414 134.666Z" fill="white"/>
<path fill-rule="evenodd" clip-rule="evenodd" d="M49.1888 129.098C42.9316 129.246 44.9023 122.361 42.4758 120.341C42.4758 120.341 51.5291 122.151 50.2604 128.335L47.3905 125.625L49.1888 129.098Z" fill="white"/>
<path fill-rule="evenodd" clip-rule="evenodd" d="M40.4925 128.372C36.1321 129.394 36.5016 124.282 34.5062 123.223C34.5062 123.223 41.1206 123.162 41.133 127.682L38.7311 126.204L40.4925 128.372Z" fill="white"/>
<path fill-rule="evenodd" clip-rule="evenodd" d="M34.8757 131.87C33.5947 136.181 29.3576 133.311 27.4484 134.518C27.4484 134.518 30.6755 128.716 34.5924 130.958L32.129 132.325L34.8757 131.87Z" fill="white"/>
<path fill-rule="evenodd" clip-rule="evenodd" d="M99.3694 127.362C94.7627 118.185 86.3869 126.327 81.6201 124.368C81.6201 124.368 91.1907 136.119 99.0985 129.505L93.0014 127.435L99.3694 127.362Z" fill="white"/>
<path fill-rule="evenodd" clip-rule="evenodd" d="M96.6966 112.556C91.7081 103.589 83.6895 112.076 78.8488 110.315C78.8488 110.315 88.8874 121.647 96.5119 114.712L90.3409 112.901L96.6966 112.556Z" fill="white"/>
<path fill-rule="evenodd" clip-rule="evenodd" d="M77.2106 100.091C67.4799 96.9376 67.369 108.651 62.6268 110.684C62.6268 110.684 77.6663 112.088 78.5409 101.791L72.801 104.698L77.2106 100.091Z" fill="white"/>
<path fill-rule="evenodd" clip-rule="evenodd" d="M58.2048 98.9823C50.7159 97.7013 51.8614 106.323 48.585 108.331C48.585 108.331 59.7938 107.765 59.3627 100.103L55.4334 102.85L58.2048 98.9823Z" fill="white"/>
<path fill-rule="evenodd" clip-rule="evenodd" d="M42.7837 102.419C37.364 101.483 38.1893 107.728 35.8243 109.169C35.8243 109.169 43.9415 108.762 43.6212 103.22L40.7882 105.203L42.7837 102.419Z" fill="white"/>
<path fill-rule="evenodd" clip-rule="evenodd" d="M32.0799 102.185C28.0645 101.483 28.6803 106.114 26.9189 107.186C26.9189 107.186 32.9421 106.89 32.6958 102.776L30.6018 104.254L32.0799 102.185Z" fill="white"/>
<path fill-rule="evenodd" clip-rule="evenodd" d="M26.6851 99.4013C25.244 95.78 21.8074 98.5884 20.0707 97.6892C20.0707 97.6892 23.2978 102.456 26.5127 100.214L24.2709 99.2289L26.6851 99.4013Z" fill="white"/>
<path fill-rule="evenodd" clip-rule="evenodd" d="M87.8407 91.7152C90.5629 81.7997 78.923 82.1816 76.6935 77.5133C76.6935 77.5133 75.9422 92.676 86.2025 93.1194L83.0739 87.4657L87.8407 91.7152Z" fill="white"/>
<path fill-rule="evenodd" clip-rule="evenodd" d="M73.2443 90.853C75.2274 83.6104 66.7161 83.8937 65.1025 80.4695C65.1025 80.4695 64.5359 91.5551 72.0495 91.8877L69.7585 87.749L73.2443 90.853Z" fill="white"/>
<path fill-rule="evenodd" clip-rule="evenodd" d="M61.3704 91.8263C63.0086 85.8771 56.0123 86.1111 54.6821 83.3027C54.6821 83.3027 54.214 92.4053 60.385 92.6639L58.5005 89.2767L61.3704 91.8263Z" fill="white"/>
<path fill-rule="evenodd" clip-rule="evenodd" d="M52.3914 93.883C52.219 88.0446 45.9617 90.2247 43.9786 88.0569C43.9786 88.0569 46.0972 96.4204 51.7386 94.9177L49.1027 92.3803L52.3914 93.883Z" fill="white"/>
<path fill-rule="evenodd" clip-rule="evenodd" d="M44.6685 96.6543C43.6954 92.0353 39.0271 94.6589 37.1426 93.2301C37.1426 93.2301 40.0248 99.5735 44.299 97.5658L41.8355 95.9399L44.6685 96.6543Z" fill="white"/>
<path fill-rule="evenodd" clip-rule="evenodd" d="M35.2457 99.4011C35.4797 95.8537 31.5628 96.8021 30.4912 95.3733C30.4912 95.3733 31.2795 100.559 34.7777 99.9923L33.3365 98.2925L35.2457 99.4011Z" fill="white"/>
<path fill-rule="evenodd" clip-rule="evenodd" d="M82.4578 73.6827C79.0213 68.3369 74.4146 73.9044 71.3475 73.0175C71.3475 73.0175 77.9989 79.6196 82.4332 75.0253L78.5409 74.163L82.4578 73.6827Z" fill="white"/>
<path fill-rule="evenodd" clip-rule="evenodd" d="M72.4811 65.6642C69.7959 58.828 63.317 64.0752 60.0529 62.3631C60.0529 62.3631 66.1007 71.3548 72.1485 67.1669L67.936 65.2947L72.4811 65.6642Z" fill="white"/>
<path fill-rule="evenodd" clip-rule="evenodd" d="M67.874 57.2145C67.4182 51.3391 61.2103 53.8272 59.1163 51.7456C59.1163 51.7456 61.6414 60.0721 67.2704 58.2984L64.4867 55.8719L67.874 57.2145Z" fill="white"/>
<path fill-rule="evenodd" clip-rule="evenodd" d="M66.1376 49.9596C67.2215 45.3283 61.8388 45.7101 60.7303 43.5792C60.7303 43.5792 60.6317 50.6248 65.4109 50.6494L63.8589 48.0874L66.1376 49.9596Z" fill="white"/>
<path fill-rule="evenodd" clip-rule="evenodd" d="M71.5324 53.6793C69.2537 49.4914 74.5501 48.4198 75.0675 46.0671C75.0675 46.0671 77.0136 52.8417 72.4192 54.135L73.2445 51.2527L71.5324 53.6793Z" fill="white"/>
<path fill-rule="evenodd" clip-rule="evenodd" d="M76.5209 60.9221C73.072 55.9213 79.6495 53.8396 79.9821 50.7849C79.9821 50.7849 83.3693 59.1114 77.7157 61.3902L78.3685 57.6087L76.5209 60.9221Z" fill="white"/>
<path fill-rule="evenodd" clip-rule="evenodd" d="M84.4412 66.4029C80.2903 61.9687 86.4859 58.9386 86.3627 55.8716C86.3627 55.8716 90.9325 63.5946 85.6853 66.6862L85.7715 62.8555L84.4412 66.4029Z" fill="white"/>
<path fill-rule="evenodd" clip-rule="evenodd" d="M93.9499 73.0666C88.7643 68.8048 95.1447 64.5799 94.5781 61.2296C94.5781 61.2296 100.688 69.0511 95.3541 73.2021L94.9107 68.9772L93.9499 73.0666Z" fill="white"/>
<path fill-rule="evenodd" clip-rule="evenodd" d="M99.8254 87.6996C94.9231 79.6194 105.319 77.0081 106.12 72.3152C106.12 72.3152 110.603 85.5317 101.624 88.5248L102.979 82.7357L99.8254 87.6996Z" fill="white"/>
<path fill-rule="evenodd" clip-rule="evenodd" d="M105.873 103.589C100.589 94.881 111.81 92.0604 112.66 86.9979C112.66 86.9979 117.489 101.249 107.807 104.489L109.273 98.2437L105.873 103.589Z" fill="white"/>
<path fill-rule="evenodd" clip-rule="evenodd" d="M130.939 142.943C135.188 132.51 122.452 131.389 120.641 126.007C120.641 126.007 117.833 142.426 128.968 144.261L126.283 137.696L130.939 142.943Z" fill="white"/>
<path fill-rule="evenodd" clip-rule="evenodd" d="M145.166 154.768C142.628 143.781 155.377 144.742 158.025 139.716C158.025 139.716 158.173 156.369 146.89 156.381L150.585 150.334L145.166 154.768Z" fill="white"/>
<path fill-rule="evenodd" clip-rule="evenodd" d="M146.459 134.506C144.377 125.44 154.896 126.228 157.076 122.078C157.076 122.078 157.199 135.824 147.888 135.836L150.942 130.847L146.459 134.506Z" fill="white"/>
<path fill-rule="evenodd" clip-rule="evenodd" d="M144.143 121.031C139.537 113.813 148.898 111.226 149.526 106.952C149.526 106.952 153.862 118.838 145.794 121.745L146.89 116.461L144.143 121.031Z" fill="white"/>
<path fill-rule="evenodd" clip-rule="evenodd" d="M136.814 112.692C131.21 107.407 138.834 103.059 138.44 99.1794C138.44 99.1794 144.845 108.615 138.416 112.95L138.231 108.085L136.814 112.692Z" fill="white"/>
<path fill-rule="evenodd" clip-rule="evenodd" d="M128.919 103.724C122.489 99.475 129.264 93.8829 128.217 90.1261C128.217 90.1261 136.137 98.3295 130.545 103.7L129.522 98.9453L128.919 103.724Z" fill="white"/>
<path fill-rule="evenodd" clip-rule="evenodd" d="M134.228 128.261C134.696 119.355 124.903 121.856 122.157 118.308C122.157 118.308 124.312 131.291 133.094 129.751L129.399 125.551L134.228 128.261Z" fill="white"/>
<path fill-rule="evenodd" clip-rule="evenodd" d="M130.089 116.264C128.488 110.327 122.612 114.084 120.05 112.347C120.05 112.347 124.238 120.39 129.67 117.483L126.344 115.537L130.089 116.264Z" fill="white"/>
<path fill-rule="evenodd" clip-rule="evenodd" d="M125.027 109.107C123.943 104.882 119.73 107.494 117.932 106.237C117.932 106.237 120.839 111.99 124.719 109.969L122.378 108.553L125.027 109.107Z" fill="white"/>
<path fill-rule="evenodd" clip-rule="evenodd" d="M121.836 103.811C122.871 99.5737 117.932 99.8694 116.934 97.9109C116.934 97.9109 116.786 104.365 121.159 104.427L119.755 102.074L121.836 103.811Z" fill="white"/>
<path fill-rule="evenodd" clip-rule="evenodd" d="M123.007 93.6123C126.456 90.9641 122.416 88.0818 122.847 85.9263C122.847 85.9263 118.72 90.8655 122.095 93.6616L122.477 90.9394L123.007 93.6123Z" fill="white"/>
<path fill-rule="evenodd" clip-rule="evenodd" d="M111.354 115.857C108.14 110.561 114.963 108.849 115.481 105.77C115.481 105.77 118.412 114.429 112.537 116.399L113.424 112.606L111.354 115.857Z" fill="white"/>
<path fill-rule="evenodd" clip-rule="evenodd" d="M113.153 127.312C111.046 121.498 118.055 121.154 119.176 118.247C119.176 118.247 120.358 127.325 114.212 128.076L115.813 124.541L113.153 127.312Z" fill="white"/>
<path fill-rule="evenodd" clip-rule="evenodd" d="M163.654 182.851C170.306 171.877 156.178 168.317 155.106 161.937C155.106 161.937 149.009 179.895 161.215 183.972L159.368 176.101L163.654 182.851Z" fill="white"/>
<path fill-rule="evenodd" clip-rule="evenodd" d="M169.406 128.163C169.566 120.021 160.698 122.595 158.074 119.442C158.074 119.442 160.439 131.242 168.421 129.567L164.91 125.847L169.406 128.163Z" fill="white"/>
<path fill-rule="evenodd" clip-rule="evenodd" d="M164.331 112.15C162.25 106.41 156.756 110.635 154.083 109.144C154.083 109.144 158.912 116.732 164.023 113.394L160.575 111.743L164.331 112.15Z" fill="white"/>
<path fill-rule="evenodd" clip-rule="evenodd" d="M157.853 100.645C152.507 95.4845 148.726 103.072 145.006 102.887C145.006 102.887 154.355 108.615 158.173 102.173L153.517 102.234L157.853 100.645Z" fill="white"/>
<path fill-rule="evenodd" clip-rule="evenodd" d="M166.992 139.987C165.921 133.176 158.924 136.649 156.276 134.42C156.276 134.42 159.984 143.892 166.376 141.293L162.903 138.731L166.992 139.987Z" fill="white"/>
<path fill-rule="evenodd" clip-rule="evenodd" d="M164.972 161.924C163.876 155.519 157.323 158.894 154.798 156.825C154.798 156.825 158.419 165.706 164.418 163.168L161.104 160.791L164.972 161.924Z" fill="white"/>
<path fill-rule="evenodd" clip-rule="evenodd" d="M145.203 94.7451C140.67 90.3725 137.467 96.8021 134.302 96.6543C134.302 96.6543 142.234 101.495 145.474 96.0384L141.52 96.1L145.203 94.7451Z" fill="white"/>
<path fill-rule="evenodd" clip-rule="evenodd" d="M122.342 81.5779C118.203 77.5748 115.284 83.4501 112.389 83.3146C112.389 83.3146 119.632 87.7366 122.588 82.7604L118.979 82.8096L122.342 81.5779Z" fill="white"/>
<path fill-rule="evenodd" clip-rule="evenodd" d="M115.924 72.685C114.705 64.5309 106.304 68.6326 103.151 65.9474C103.151 65.9474 107.524 77.304 115.185 74.2493L111.059 71.1453L115.924 72.685Z" fill="white"/>
<path fill-rule="evenodd" clip-rule="evenodd" d="M109.261 61.3407C108.398 55.5638 102.449 58.4707 100.22 56.5615C100.22 56.5615 103.311 64.6048 108.743 62.4369L105.812 60.2444L109.261 61.3407Z" fill="white"/>
<path fill-rule="evenodd" clip-rule="evenodd" d="M106.908 50.8584C104.716 44.5519 98.6309 49.097 95.7117 47.4342C95.7117 47.4342 100.91 55.81 106.551 52.2133L102.794 50.3657L106.908 50.8584Z" fill="white"/>
<path fill-rule="evenodd" clip-rule="evenodd" d="M100.121 43.1849C97.9903 39.8223 95.0834 43.2958 93.1619 42.7292C93.1619 42.7292 97.3128 46.8801 100.097 44.0225L97.67 43.4682L100.121 43.1849Z" fill="white"/>
<path fill-rule="evenodd" clip-rule="evenodd" d="M92.0407 39.6253C90.501 42.4706 87.939 39.8224 86.424 40.4013C86.424 40.4013 89.5402 36.78 91.9791 38.9355L90.0329 39.539L92.0407 39.6253Z" fill="white"/>
<path fill-rule="evenodd" clip-rule="evenodd" d="M98.2981 38.9232C94.2457 39.2927 95.2064 34.7353 93.5436 33.5282C93.5436 33.5282 99.5052 34.2919 98.9632 38.3689L96.9801 36.743L98.2981 38.9232Z" fill="white"/>
<path fill-rule="evenodd" clip-rule="evenodd" d="M104.506 41.9532C100.158 39.0709 104.752 35.3018 104.038 32.7644C104.038 32.7644 109.384 38.3195 105.602 41.9532L104.912 38.726L104.506 41.9532Z" fill="white"/>
<path fill-rule="evenodd" clip-rule="evenodd" d="M110.8 46.326C108.029 42.7662 112.82 40.9433 112.931 38.6646C112.931 38.6646 115.801 44.6877 111.699 46.6216L112.02 43.7886L110.8 46.326Z" fill="white"/>
<path fill-rule="evenodd" clip-rule="evenodd" d="M113.374 57.8547C108.965 52.5336 116.232 49.5035 116.294 46.0054C116.294 46.0054 120.974 55.1202 114.779 58.2611L115.136 53.9131L113.374 57.8547Z" fill="white"/>
<path fill-rule="evenodd" clip-rule="evenodd" d="M120.1 67.6715C115.641 62.1164 123.155 59.1356 123.29 55.5389C123.29 55.5389 127.946 64.9864 121.529 68.115L121.972 63.6438L120.1 67.6715Z" fill="white"/>
<path fill-rule="evenodd" clip-rule="evenodd" d="M126.961 77.3162C123.142 72.6603 129.486 70.0613 129.56 67.0189C129.56 67.0189 133.587 74.9636 128.18 77.6734L128.513 73.892L126.961 77.3162Z" fill="white"/>
<path fill-rule="evenodd" clip-rule="evenodd" d="M136.975 81.8492C130.631 77.7106 137.258 72.1678 136.199 68.4849C136.199 68.4849 144.033 76.5035 138.564 81.8123L137.541 77.144L136.975 81.8492Z" fill="white"/>
<path fill-rule="evenodd" clip-rule="evenodd" d="M151.718 84.9038C156.978 76.8236 146.459 73.8058 145.806 68.9774C145.806 68.9774 140.78 82.3294 149.846 85.6921L148.664 79.7305L151.718 84.9038Z" fill="white"/>
<path fill-rule="evenodd" clip-rule="evenodd" d="M156.227 64.5927C154.207 53.3716 142.751 59.3824 138.292 55.7734C138.292 55.7734 144.771 71.3179 155.266 66.7852L149.427 62.6588L156.227 64.5927Z" fill="white"/>
<path fill-rule="evenodd" clip-rule="evenodd" d="M151.879 47.7791C147.124 39.9946 140.313 47.853 135.952 46.4735C135.952 46.4735 145.301 56.1426 151.805 49.7006L146.25 48.3334L151.879 47.7791Z" fill="white"/>
<path fill-rule="evenodd" clip-rule="evenodd" d="M144.082 36.718C138.736 31.6925 135.115 39.2431 131.419 39.0953C131.419 39.0953 140.731 44.6258 144.427 38.233L139.82 38.3439L144.082 36.718Z" fill="white"/>
<path fill-rule="evenodd" clip-rule="evenodd" d="M133.181 30.4982C128.648 24.4504 123.647 31.4466 119.927 30.6583C119.927 30.6583 128.389 37.9133 133.267 32.0871L128.574 31.3851L133.181 30.4982Z" fill="white"/>
<path fill-rule="evenodd" clip-rule="evenodd" d="M128.5 24.6223C123.734 25.854 124.017 20.2127 121.8 19.0918C121.8 19.0918 129.067 18.8701 129.19 23.8463L126.517 22.2697L128.5 24.6223Z" fill="white"/>
<path fill-rule="evenodd" clip-rule="evenodd" d="M136.297 26.3714C131.518 25.152 134.462 20.3359 133.045 18.2913C133.045 18.2913 139.537 21.58 137.27 26.0142L135.669 23.3537L136.297 26.3714Z" fill="white"/>
<path fill-rule="evenodd" clip-rule="evenodd" d="M143.7 29.0201C139.155 25.9777 143.983 22.0362 143.257 19.3756C143.257 19.3756 148.836 25.2264 144.846 29.0201L144.143 25.6328L143.7 29.0201Z" fill="white"/>
<path fill-rule="evenodd" clip-rule="evenodd" d="M150.905 34.5382C146.286 29.9192 152.852 26.4334 152.618 23.1447C152.618 23.1447 157.803 31.3111 152.248 34.7969L152.211 30.6706L150.905 34.5382Z" fill="white"/>
<path fill-rule="evenodd" clip-rule="evenodd" d="M177.979 110.118C171.229 103.343 180.849 98.2437 180.504 93.4276C180.504 93.4276 188.091 105.375 179.962 110.499L179.913 104.464L177.979 110.118Z" fill="white"/>
<path fill-rule="evenodd" clip-rule="evenodd" d="M165.095 92.1462C160.538 83.7088 171.204 81.5902 172.239 76.8604C172.239 76.8604 176.131 90.4834 166.881 93.0823L168.544 87.2808L165.095 92.1462Z" fill="white"/>
<path fill-rule="evenodd" clip-rule="evenodd" d="M191.553 91.2104C193.08 81.7261 182.315 83.2781 179.778 79.1641C179.778 79.1641 180.603 93.3167 190.186 92.6762L186.7 87.7493L191.553 91.2104Z" fill="white"/>
<path fill-rule="evenodd" clip-rule="evenodd" d="M163.789 72.6605C162.742 65.8244 170.502 66.9945 172.362 64.0507C172.362 64.0507 171.685 74.2494 164.775 73.7321L167.312 70.2093L163.789 72.6605Z" fill="white"/>
<path fill-rule="evenodd" clip-rule="evenodd" d="M186.737 72.9435C183.103 67.0558 177.967 73.0174 174.641 71.995C174.641 71.995 181.761 79.3115 186.675 74.3969L182.463 73.3746L186.737 72.9435Z" fill="white"/>
<path fill-rule="evenodd" clip-rule="evenodd" d="M158.949 45.8331C154.502 40.5489 161.732 37.4696 161.782 33.9838C161.782 33.9838 166.511 43.037 160.34 46.2272L160.685 41.8792L158.949 45.8331Z" fill="white"/>
<path fill-rule="evenodd" clip-rule="evenodd" d="M163.826 58.0025C160.673 54.2457 165.809 52.0778 165.834 49.5897C165.834 49.5897 169.197 56.0194 164.824 58.2858L165.058 55.1941L163.826 58.0025Z" fill="white"/>
<path fill-rule="evenodd" clip-rule="evenodd" d="M200.274 66.834C202.195 59.4682 193.561 59.8623 191.873 56.4258C191.873 56.4258 191.454 67.6592 199.066 67.8932L196.689 63.7423L200.274 66.834Z" fill="white"/>
<path fill-rule="evenodd" clip-rule="evenodd" d="M195.322 52.2137C194.891 44.6016 186.798 47.6563 184.138 44.9095C184.138 44.9095 187.193 55.7242 194.509 53.581L190.974 50.3785L195.322 52.2137Z" fill="white"/>
<path fill-rule="evenodd" clip-rule="evenodd" d="M192.132 39.6374C193.006 32.0746 184.52 33.6758 182.376 30.5103C182.376 30.5103 183.51 41.7067 191.085 40.8568L188.166 37.0754L192.132 39.6374Z" fill="white"/>
<path fill-rule="evenodd" clip-rule="evenodd" d="M200.15 41.5589C199.067 34.0207 207.59 35.4002 209.659 32.1731C209.659 32.1731 208.81 43.3942 201.21 42.7414L204.055 38.8861L200.15 41.5589Z" fill="white"/>
<path fill-rule="evenodd" clip-rule="evenodd" d="M207.393 59.5915C202.909 52.3243 212.308 49.8855 212.985 45.6237C212.985 45.6237 217.136 57.5592 209.031 60.3306L210.214 55.0834L207.393 59.5915Z" fill="white"/>
<path fill-rule="evenodd" clip-rule="evenodd" d="M198.13 30.0792C197.305 24.2777 203.858 25.337 205.447 22.8612C205.447 22.8612 204.794 31.4957 198.955 30.9907L201.135 28.0345L198.13 30.0792Z" fill="white"/>
<path fill-rule="evenodd" clip-rule="evenodd" d="M192.513 26.3961C193.339 20.5946 186.786 21.6539 185.197 19.1781C185.197 19.1781 185.85 27.8003 191.688 27.3076L189.508 24.3391L192.513 26.3961Z" fill="white"/>
<path fill-rule="evenodd" clip-rule="evenodd" d="M202.318 12.3297C206.247 12.1203 204.683 7.8954 206.112 6.50354C206.112 6.50354 200.507 8.08016 201.604 11.8985L203.279 10.0633L202.318 12.3297Z" fill="white"/>
<path fill-rule="evenodd" clip-rule="evenodd" d="M196.073 17.774C199.091 13.7339 193.696 11.8124 193.524 9.27502C193.524 9.27502 190.469 16.0619 195.076 18.1312L194.657 14.978L196.073 17.774Z" fill="white"/>
<path fill-rule="evenodd" clip-rule="evenodd" d="M200.384 20.0898C200.384 16.6533 204.104 17.8111 205.225 16.5055C205.225 16.5055 204.153 21.4571 200.791 20.6934L202.293 19.1414L200.384 20.0898Z" fill="white"/>
<path fill-rule="evenodd" clip-rule="evenodd" d="M183.054 62.3384C174.087 64.3954 174.9 53.8887 170.81 51.6838C170.81 51.6838 184.409 51.6223 184.372 60.9219L179.457 57.8548L183.054 62.3384Z" fill="white"/>
<path fill-rule="evenodd" clip-rule="evenodd" d="M222.002 53.8515C227.286 47.8406 218.996 44.0961 219.033 40.056C219.033 40.056 213.33 50.4149 220.376 54.2703L220.105 49.2325L222.002 53.8515Z" fill="white"/>
<path fill-rule="evenodd" clip-rule="evenodd" d="M229.133 43.5053C232.335 37.7901 225.056 36.2258 224.391 32.974C224.391 32.974 221.595 42.2613 227.901 44.1335L226.817 40.1427L229.133 43.5053Z" fill="white"/>
<path fill-rule="evenodd" clip-rule="evenodd" d="M233.148 30.7195C235.033 24.4253 227.593 24.4869 226.238 21.4691C226.238 21.4691 225.524 31.1506 232.077 31.594L230.168 27.9357L233.148 30.7195Z" fill="white"/>
<path fill-rule="evenodd" clip-rule="evenodd" d="M230.734 16.9981C231.116 11.0488 224.551 12.6501 222.74 10.2605C222.74 10.2605 224.095 18.9566 229.971 17.9835L227.532 15.1505L230.734 16.9981Z" fill="white"/>
<mask id="mask2_12_622" style="mask-type:luminance" maskUnits="userSpaceOnUse" x="222" y="0" width="7" height="9">
<path d="M222.605 0H228.912V8.54825H222.605V0Z" fill="white"/>
</mask>
<g mask="url(#mask2_12_622)">
<path fill-rule="evenodd" clip-rule="evenodd" d="M227.655 6.04782C223.492 5.94929 225.02 1.42882 223.468 0C223.468 0 229.441 1.4904 228.394 5.57977L226.572 3.68289L227.655 6.04782Z" fill="white"/>
</g>
<mask id="mask3_12_622" style="mask-type:luminance" maskUnits="userSpaceOnUse" x="232" y="0" width="7" height="12">
<path d="M232.065 0H238.371V11.7015H232.065V0Z" fill="white"/>
</mask>
<g mask="url(#mask3_12_622)">
<path fill-rule="evenodd" clip-rule="evenodd" d="M234.097 10.051C229.848 6.51594 235.119 3.06707 234.664 0.307983C234.664 0.307983 239.664 6.7746 235.255 10.1742L234.91 6.70069L234.097 10.051Z" fill="white"/>
</g>
<path fill-rule="evenodd" clip-rule="evenodd" d="M238.544 20.878C236.142 15.8771 242.362 14.941 243.076 12.2312C243.076 12.2312 244.973 20.2129 239.554 21.4692L240.674 18.1559L238.544 20.878Z" fill="white"/>
<path fill-rule="evenodd" clip-rule="evenodd" d="M238.309 33.7744C237.767 28.2563 243.926 29.5373 245.54 27.2585C245.54 27.2585 244.554 35.4003 239.048 34.6736L241.241 31.9638L238.309 33.7744Z" fill="white"/>
<path fill-rule="evenodd" clip-rule="evenodd" d="M236.179 45.8208C236.376 40.2657 242.313 42.372 244.21 40.3396C244.21 40.3396 242.153 48.272 236.794 46.8062L239.32 44.4166L236.179 45.8208Z" fill="white"/>
<path fill-rule="evenodd" clip-rule="evenodd" d="M296.09 222.71C304.035 224.965 298.899 232.885 301.177 236.383C301.177 236.383 290.449 230.557 294.44 223.252L297.014 227.798L296.09 222.71Z" fill="white"/>
<path fill-rule="evenodd" clip-rule="evenodd" d="M317.473 223.043C317.806 216.503 324.765 219.089 327.044 216.712C327.044 216.712 324.482 226.036 318.175 224.226L321.205 221.442L317.473 223.043Z" fill="white"/>
<path fill-rule="evenodd" clip-rule="evenodd" d="M327.684 232.7C334.988 228.844 336.688 238.144 340.74 239.105C340.74 239.105 328.977 242.307 326.871 234.239L331.835 235.754L327.684 232.7Z" fill="white"/>
<path fill-rule="evenodd" clip-rule="evenodd" d="M313.384 231.887C321.329 234.153 316.18 242.073 318.459 245.559C318.459 245.559 307.73 239.745 311.733 232.441L314.295 236.974L313.384 231.887Z" fill="white"/>
<path fill-rule="evenodd" clip-rule="evenodd" d="M333.941 221.897C333.19 213.645 342.391 215.616 344.818 212.228C344.818 212.228 343.266 224.386 335.038 223.252L338.339 219.225L333.941 221.897Z" fill="white"/>
<path fill-rule="evenodd" clip-rule="evenodd" d="M272.219 215.837C283.65 221.257 273.919 231.912 276.481 237.762C276.481 237.762 261.737 226.27 269.608 216.244L272.33 223.745L272.219 215.837Z" fill="white"/>
<path fill-rule="evenodd" clip-rule="evenodd" d="M250.27 201.537C263.376 209.814 249.974 221.343 252.241 228.832C252.241 228.832 235.982 212.672 247.018 201.636L249.248 211.169L250.27 201.537Z" fill="white"/>
<path fill-rule="evenodd" clip-rule="evenodd" d="M299.305 210.393C308.974 211.576 306.967 200.601 311.044 197.842C311.044 197.842 296.719 199.246 297.753 209.038L302.606 205.281L299.305 210.393Z" fill="white"/>
<path fill-rule="evenodd" clip-rule="evenodd" d="M317.744 205.836C325.775 203.963 321.033 195.809 323.472 192.434C323.472 192.434 312.485 197.718 316.131 205.207L318.902 200.798L317.744 205.836Z" fill="white"/>
<path fill-rule="evenodd" clip-rule="evenodd" d="M334.003 201.29C341.504 200.675 338.289 192.681 340.95 189.946C340.95 189.946 330.32 193.26 332.623 200.514L335.715 196.905L334.003 201.29Z" fill="white"/>
<path fill-rule="evenodd" clip-rule="evenodd" d="M348.365 201.993C355.669 203.803 355.164 195.194 358.539 193.469C358.539 193.469 347.417 193.198 347.294 200.81L351.371 198.384L348.365 201.993Z" fill="white"/>
<mask id="mask4_12_622" style="mask-type:luminance" maskUnits="userSpaceOnUse" x="358" y="207" width="12" height="10">
<path d="M358.194 207.203H369.465V216.662H358.194V207.203Z" fill="white"/>
</mask>
<g mask="url(#mask4_12_622)">
<path fill-rule="evenodd" clip-rule="evenodd" d="M359.549 210.676C360.559 216.663 366.693 213.534 369.046 215.468C369.046 215.468 365.671 207.166 360.067 209.518L363.146 211.748L359.549 210.676Z" fill="white"/>
</g>
<mask id="mask5_12_622" style="mask-type:luminance" maskUnits="userSpaceOnUse" x="355" y="200" width="15" height="8">
<path d="M355.842 200.896H369.194V207.203H355.842V200.896Z" fill="white"/>
</mask>
<g mask="url(#mask5_12_622)">
<path fill-rule="evenodd" clip-rule="evenodd" d="M357.086 205.466C362.148 210.319 365.671 203.138 369.194 203.311C369.194 203.311 360.35 197.953 356.765 204.025L361.175 203.951L357.086 205.466Z" fill="white"/>
</g>
<path fill-rule="evenodd" clip-rule="evenodd" d="M347.909 206.957C353.858 207.967 350.742 214.138 352.676 216.502C352.676 216.502 344.411 213.115 346.751 207.486L348.968 210.578L347.909 206.957Z" fill="white"/>
<path fill-rule="evenodd" clip-rule="evenodd" d="M333.683 207.4C338.684 205.405 339.164 211.551 341.726 212.45C341.726 212.45 333.868 213.719 333.055 208.348L336.171 209.679L333.683 207.4Z" fill="white"/>
<path fill-rule="evenodd" clip-rule="evenodd" d="M307.176 191.732C310.637 185.672 316.02 191.511 319.333 190.353C319.333 190.353 312.411 197.977 307.287 193.198L311.499 192.028L307.176 191.732Z" fill="white"/>
<path fill-rule="evenodd" clip-rule="evenodd" d="M314.973 182.273C319.333 176.249 324.383 183.073 328.017 182.236C328.017 182.236 319.801 189.503 314.911 183.837L319.518 183.086L314.973 182.273Z" fill="white"/>
<path fill-rule="evenodd" clip-rule="evenodd" d="M328.349 174.993C334.557 170.904 336.861 179.07 340.568 179.588C340.568 179.588 330.32 183.467 327.746 176.434L332.316 177.358L328.349 174.993Z" fill="white"/>
<path fill-rule="evenodd" clip-rule="evenodd" d="M345.138 175.843C352.528 175.239 350.681 183.529 353.699 185.746C353.699 185.746 342.835 184.243 343.919 176.828L347.503 179.846L345.138 175.843Z" fill="white"/>
<path fill-rule="evenodd" clip-rule="evenodd" d="M280.78 191.942C291.754 192.841 289.008 180.548 293.479 177.247C293.479 177.247 277.38 179.489 278.981 190.488L284.29 186.029L280.78 191.942Z" fill="white"/>
<path fill-rule="evenodd" clip-rule="evenodd" d="M303.838 178.713C311.548 175.51 305.476 168.157 307.348 164.375C307.348 164.375 297.235 171.482 302.113 178.368L304.158 173.49L303.838 178.713Z" fill="white"/>
<path fill-rule="evenodd" clip-rule="evenodd" d="M316.438 170.768C324.346 169.216 319.973 161.099 322.474 157.884C322.474 157.884 311.573 162.676 314.874 170.103L317.732 165.89L316.438 170.768Z" fill="white"/>
<path fill-rule="evenodd" clip-rule="evenodd" d="M330.345 168.292C338.031 169.302 336.516 160.557 339.78 158.389C339.78 158.389 328.374 159.411 329.126 167.208L333.018 164.24L330.345 168.292Z" fill="white"/>
<path fill-rule="evenodd" clip-rule="evenodd" d="M343.647 169.77C350.779 172.8 351.641 163.969 355.349 162.749C355.349 162.749 344.091 160.692 342.76 168.403L347.281 166.592L343.647 169.77Z" fill="white"/>
<mask id="mask6_12_622" style="mask-type:luminance" maskUnits="userSpaceOnUse" x="355" y="175" width="15" height="11">
<path d="M355.041 175.671H369.465V185.13H355.041V175.671Z" fill="white"/>
</mask>
<g mask="url(#mask6_12_622)">
<path fill-rule="evenodd" clip-rule="evenodd" d="M355.472 177.974C357.185 185.574 364.834 181.14 367.975 183.455C367.975 183.455 363.085 173.059 356.076 176.459L360.178 179.095L355.472 177.974Z" fill="white"/>
</g>
<path fill-rule="evenodd" clip-rule="evenodd" d="M274.474 167.504C282.936 161.444 273.513 154.263 274.744 149.151C274.744 149.151 264.484 160.606 272.293 167.553L273.414 161.087L274.474 167.504Z" fill="white"/>
<path fill-rule="evenodd" clip-rule="evenodd" d="M290.991 158.155C298.086 150.531 287.444 145.357 287.641 140.11C287.641 140.11 279.832 153.376 288.86 158.636L288.688 152.083L290.991 158.155Z" fill="white"/>
<path fill-rule="evenodd" clip-rule="evenodd" d="M298.086 136.156C302.951 126.93 291.324 124.738 290.153 119.614C290.153 119.614 286.076 134.481 296.164 137.178L294.28 130.897L298.086 136.156Z" fill="white"/>
<path fill-rule="evenodd" clip-rule="evenodd" d="M300.044 118.838C304.282 113.394 296.953 110.61 296.78 107.124C296.78 107.124 292.395 116.338 298.665 119.294L298.172 114.97L300.044 118.838Z" fill="white"/>
<path fill-rule="evenodd" clip-rule="evenodd" d="M309.393 145.986C309.947 137.721 318.705 141.12 321.624 138.164C321.624 138.164 318.187 149.903 310.255 147.488L314.147 144.04L309.393 145.986Z" fill="white"/>
<path fill-rule="evenodd" clip-rule="evenodd" d="M310.994 130.441C309.824 122.25 319.087 123.74 321.341 120.242C321.341 120.242 320.417 132.436 312.152 131.734L315.231 127.546L310.994 130.441Z" fill="white"/>
<path fill-rule="evenodd" clip-rule="evenodd" d="M314.16 113.566C317.51 107.592 322.843 113.283 326.083 112.125C326.083 112.125 319.333 119.663 314.271 115.007L318.409 113.813L314.16 113.566Z" fill="white"/>
<path fill-rule="evenodd" clip-rule="evenodd" d="M311.351 106.324C317.042 104.402 313.039 98.8347 314.566 96.2111C314.566 96.2111 306.966 100.818 310.132 105.991L311.832 102.604L311.351 106.324Z" fill="white"/>
<path fill-rule="evenodd" clip-rule="evenodd" d="M324.112 102.949C329.593 102.961 327.746 96.9623 329.827 95.1516C329.827 95.1516 321.932 96.913 323.164 102.308L325.615 99.8692L324.112 102.949Z" fill="white"/>
<path fill-rule="evenodd" clip-rule="evenodd" d="M329.742 107.469C334.336 104.464 336.023 110.512 338.758 110.893C338.758 110.893 331.183 113.739 329.286 108.529L332.673 109.231L329.742 107.469Z" fill="white"/>
<path fill-rule="evenodd" clip-rule="evenodd" d="M336.331 101.151C341.8 100.83 339.583 94.9549 341.566 93.0211C341.566 93.0211 333.781 95.2506 335.333 100.572L337.637 97.985L336.331 101.151Z" fill="white"/>
<path fill-rule="evenodd" clip-rule="evenodd" d="M342.391 102.727C346.493 99.0685 349.067 104.784 351.827 104.747C351.827 104.747 344.756 108.701 342.108 103.848L345.545 104.032L342.391 102.727Z" fill="white"/>
<path fill-rule="evenodd" clip-rule="evenodd" d="M348.094 95.1516C347.133 89.732 353.329 90.5203 354.745 88.1307C354.745 88.1307 354.4 96.2602 348.895 95.9769L350.841 93.1193L348.094 95.1516Z" fill="white"/>
<path fill-rule="evenodd" clip-rule="evenodd" d="M340.334 151.713C344.818 145.628 349.88 152.6 353.576 151.775C353.576 151.775 345.175 159.091 340.26 153.302L344.941 152.575L340.334 151.713Z" fill="white"/>
<path fill-rule="evenodd" clip-rule="evenodd" d="M348.057 142.106C350.927 136.39 356.15 141.465 359.118 140.258C359.118 140.258 353.144 147.574 348.23 143.436L352.024 142.167L348.057 142.106Z" fill="white"/>
<path fill-rule="evenodd" clip-rule="evenodd" d="M352.688 131.956C354.758 126.536 359.919 130.65 362.493 129.271C362.493 129.271 357.776 136.415 352.959 133.138L356.273 131.636L352.688 131.956Z" fill="white"/>
<path fill-rule="evenodd" clip-rule="evenodd" d="M329.051 146.971C336.048 143.362 329.79 136.932 331.256 133.25C331.256 133.25 322.314 140.689 327.413 146.774L328.965 142.044L329.051 146.971Z" fill="white"/>
<path fill-rule="evenodd" clip-rule="evenodd" d="M340.458 140.627C344.954 137.08 339.583 133.373 340.125 130.54C340.125 130.54 334.792 137.105 339.263 140.726L339.719 137.142L340.458 140.627Z" fill="white"/>
<path fill-rule="evenodd" clip-rule="evenodd" d="M346.616 131.931C350.508 128.852 345.865 125.649 346.333 123.198C346.333 123.198 341.714 128.877 345.581 132.005L345.976 128.901L346.616 131.931Z" fill="white"/>
<path fill-rule="evenodd" clip-rule="evenodd" d="M353.194 126.771C357.012 125.169 353.982 121.548 354.906 119.664C354.906 119.664 349.929 123.211 352.344 126.598L353.354 124.184L353.194 126.771Z" fill="white"/>
<path fill-rule="evenodd" clip-rule="evenodd" d="M267.12 142.832C265.543 133.446 276.223 134.912 278.711 130.823C278.711 130.823 277.984 144.852 268.487 144.286L271.912 139.383L267.12 142.832Z" fill="white"/>
<path fill-rule="evenodd" clip-rule="evenodd" d="M265.396 125.33C266.972 115.956 276.58 120.858 280.275 117.816C280.275 117.816 275.003 130.835 266.209 127.152L271.049 123.654L265.396 125.33Z" fill="white"/>
<path fill-rule="evenodd" clip-rule="evenodd" d="M279.24 112.051C283.243 106.73 287.628 112.901 290.904 112.199C290.904 112.199 283.452 118.579 279.166 113.443L283.292 112.839L279.24 112.051Z" fill="white"/>
<path fill-rule="evenodd" clip-rule="evenodd" d="M322.178 89.9168C325.676 83.6966 331.244 89.6335 334.619 88.4264C334.619 88.4264 327.586 96.2726 322.301 91.4196L326.612 90.1878L322.178 89.9168Z" fill="white"/>
<path fill-rule="evenodd" clip-rule="evenodd" d="M309.134 90.4834C316.697 86.1969 309.479 79.3854 310.945 75.2345C310.945 75.2345 301.411 83.869 307.311 90.3479L308.814 85.0638L309.134 90.4834Z" fill="white"/>
<path fill-rule="evenodd" clip-rule="evenodd" d="M320.651 80.8639C327.475 78.7823 322.918 72.0324 324.827 68.9653C324.827 68.9653 315.65 74.1756 319.223 80.4205L321.366 76.4543L320.651 80.8639Z" fill="white"/>
<path fill-rule="evenodd" clip-rule="evenodd" d="M335.518 78.3511C339.62 82.6745 342.921 76.7252 345.902 77.0085C345.902 77.0085 338.61 72.0816 335.309 77.107L339.053 77.2179L335.518 78.3511Z" fill="white"/>
<path fill-rule="evenodd" clip-rule="evenodd" d="M264.817 99.623C265.802 89.9538 275.927 94.3142 279.474 90.9639C279.474 90.9639 274.966 104.575 265.777 101.409L270.47 97.529L264.817 99.623Z" fill="white"/>
<path fill-rule="evenodd" clip-rule="evenodd" d="M250.294 102.653C254.236 93.7972 243.31 92.4915 241.894 87.8109C241.894 87.8109 239.036 101.865 248.57 103.737L246.439 98.022L250.294 102.653Z" fill="white"/>
<path fill-rule="evenodd" clip-rule="evenodd" d="M253.62 85.0885C257.512 76.6881 247.104 75.2716 245.835 70.7881C245.835 70.7881 242.879 84.1524 251.957 86.0986L250.011 80.605L253.62 85.0885Z" fill="white"/>
<path fill-rule="evenodd" clip-rule="evenodd" d="M252.45 65.9473C255.468 58.3229 246.193 57.6085 244.838 53.7162C244.838 53.7162 242.928 65.6763 251.033 66.9081L249.038 62.1659L252.45 65.9473Z" fill="white"/>
<path fill-rule="evenodd" clip-rule="evenodd" d="M262.538 73.6952C258.904 65.849 268.61 64.5434 269.805 60.3555C269.805 60.3555 272.539 72.8206 264.09 74.6313L265.9 69.5073L262.538 73.6952Z" fill="white"/>
<path fill-rule="evenodd" clip-rule="evenodd" d="M261.749 58.4215C260.838 51.4868 268.635 52.8417 270.569 49.9102C270.569 49.9102 269.669 60.1828 262.71 59.5177L265.346 56.0073L261.749 58.4215Z" fill="white"/>
<path fill-rule="evenodd" clip-rule="evenodd" d="M255.542 51.179C260.814 46.0673 253.509 42.0272 253.83 38.332C253.83 38.332 247.856 47.3976 254.027 51.4377L254.15 46.8064L255.542 51.179Z" fill="white"/>
<path fill-rule="evenodd" clip-rule="evenodd" d="M262.895 39.7974C266.911 35.9051 261.343 32.8258 261.59 30.0051C261.59 30.0051 257.044 36.9152 261.737 39.9945L261.824 36.4717L262.895 39.7974Z" fill="white"/>
<path fill-rule="evenodd" clip-rule="evenodd" d="M266.787 45.2667C267.649 39.7362 273.352 42.5569 275.508 40.7339C275.508 40.7339 272.49 48.4446 267.28 46.3383L270.1 44.2443L266.787 45.2667Z" fill="white"/>
<path fill-rule="evenodd" clip-rule="evenodd" d="M271.665 33.294C271.566 27.6896 277.663 29.4756 279.462 27.2954C279.462 27.2954 277.836 35.4249 272.342 34.2547L274.756 31.6927L271.665 33.294Z" fill="white"/>
<path fill-rule="evenodd" clip-rule="evenodd" d="M268.142 28.1702C269.867 23.4773 264.201 23.1817 263.314 20.8168C263.314 20.8168 262.316 28.1456 267.292 28.7861L265.999 25.9162L268.142 28.1702Z" fill="white"/>
<path fill-rule="evenodd" clip-rule="evenodd" d="M268.795 20.4842C263.277 19.622 266.073 13.8821 264.25 11.7266C264.25 11.7266 271.936 14.732 269.855 19.9669L267.761 17.1462L268.795 20.4842Z" fill="white"/>
<path fill-rule="evenodd" clip-rule="evenodd" d="M273.352 83.9678C277.109 77.4888 282.837 83.783 286.397 82.5636C286.397 82.5636 278.92 90.693 273.451 85.5321L277.984 84.3003L273.352 83.9678Z" fill="white"/>
<path fill-rule="evenodd" clip-rule="evenodd" d="M282.048 72.9192C285.941 66.5388 291.545 72.9561 295.117 71.8229C295.117 71.8229 287.468 79.78 282.122 74.4958L286.667 73.3626L282.048 72.9192Z" fill="white"/>
<path fill-rule="evenodd" clip-rule="evenodd" d="M290.893 60.2812C293.565 54.4551 298.96 59.3451 301.892 58.0272C301.892 58.0272 296.177 65.5654 291.102 61.6115L294.859 60.195L290.893 60.2812Z" fill="white"/>
<path fill-rule="evenodd" clip-rule="evenodd" d="M280.189 62.8802C285.079 58.1873 278.341 54.4305 278.674 51.0309C278.674 51.0309 273.106 59.3574 278.785 63.1142L278.908 58.8524L280.189 62.8802Z" fill="white"/>
<path fill-rule="evenodd" clip-rule="evenodd" d="M287.37 53.5314C291.41 48.5552 284.672 45.8208 284.574 42.5936C284.574 42.5936 280.337 51.0557 286.089 53.9133L285.719 49.8978L287.37 53.5314Z" fill="white"/>
<path fill-rule="evenodd" clip-rule="evenodd" d="M295.462 49.0601C296.977 43.1847 302.815 46.843 305.316 45.1185C305.316 45.1185 301.263 53.0879 295.881 50.2549L299.145 48.3087L295.462 49.0601Z" fill="white"/>
<path fill-rule="evenodd" clip-rule="evenodd" d="M291.853 42.7905C294.686 38.1346 288.454 36.755 287.936 34.0698C287.936 34.0698 285.399 41.6696 290.782 43.2832L289.919 39.9945L291.853 42.7905Z" fill="white"/>
<path fill-rule="evenodd" clip-rule="evenodd" d="M297.051 37.593C295.893 32.2596 302.224 32.9986 303.592 30.646C303.592 30.646 303.518 38.6523 297.901 38.4059L299.798 35.5853L297.051 37.593Z" fill="white"/>
<path fill-rule="evenodd" clip-rule="evenodd" d="M295.13 29.1184C290.092 27.0491 294.292 22.2207 293.134 19.7572C293.134 19.7572 299.65 24.3639 296.263 28.8721L295.031 25.7065L295.13 29.1184Z" fill="white"/>
<path fill-rule="evenodd" clip-rule="evenodd" d="M213.515 180.708C224.526 175.412 215.079 165.176 217.53 159.51C217.53 159.51 203.341 170.682 210.99 180.326L213.589 173.071L213.515 180.708Z" fill="white"/>
<path fill-rule="evenodd" clip-rule="evenodd" d="M234.516 167.849C242.633 160.101 231.498 153.856 232.04 148.215C232.04 148.215 222.802 161.998 232.188 168.243L232.422 161.161L234.516 167.849Z" fill="white"/>
<path fill-rule="evenodd" clip-rule="evenodd" d="M248.927 152.674C254.655 143.793 243.113 140.541 242.362 135.257C242.362 135.257 236.93 149.902 246.883 153.548L245.552 147.02L248.927 152.674Z" fill="white"/>
<path fill-rule="evenodd" clip-rule="evenodd" d="M197.058 152.033C191.528 145.357 200.63 141.576 200.717 137.216C200.717 137.216 206.555 148.609 198.795 152.538L199.263 147.094L197.058 152.033Z" fill="white"/>
<path fill-rule="evenodd" clip-rule="evenodd" d="M210.546 144.902C215.473 138.952 207.368 135.59 207.282 131.685C207.282 131.685 202.084 141.859 208.994 145.357L208.588 140.504L210.546 144.902Z" fill="white"/>
<path fill-rule="evenodd" clip-rule="evenodd" d="M217.592 131.944C221.62 125.859 213.663 123.519 213.195 119.86C213.195 119.86 209.339 129.948 216.175 132.523L215.301 128.015L217.592 131.944Z" fill="white"/>
<path fill-rule="evenodd" clip-rule="evenodd" d="M220.942 118.112C224.527 112.692 217.444 110.61 217.025 107.359C217.025 107.359 213.576 116.338 219.674 118.629L218.898 114.613L220.942 118.112Z" fill="white"/>
<path fill-rule="evenodd" clip-rule="evenodd" d="M225.893 122.644C224.686 116.239 232.015 117.102 233.666 114.269C233.666 114.269 233.358 123.876 226.854 123.617L229.121 120.218L225.893 122.644Z" fill="white"/>
<path fill-rule="evenodd" clip-rule="evenodd" d="M217.801 153.586C219.55 147.316 225.746 151.344 228.468 149.545C228.468 149.545 223.948 158.02 218.232 154.891L221.767 152.859L217.801 153.586Z" fill="white"/>
<path fill-rule="evenodd" clip-rule="evenodd" d="M229.404 141.219C231.141 134.949 237.337 138.989 240.059 137.179C240.059 137.179 235.538 145.653 229.835 142.524L233.37 140.492L229.404 141.219Z" fill="white"/>
<path fill-rule="evenodd" clip-rule="evenodd" d="M236.314 129.801C238.051 123.531 244.247 127.571 246.981 125.761C246.981 125.761 242.461 134.235 236.733 131.106L240.281 129.062L236.314 129.801Z" fill="white"/>
<path fill-rule="evenodd" clip-rule="evenodd" d="M223.208 107.247C218.183 103.133 224.329 99.0439 223.775 95.8168C223.775 95.8168 229.7 103.355 224.563 107.37L224.12 103.306L223.208 107.247Z" fill="white"/>
<path fill-rule="evenodd" clip-rule="evenodd" d="M190.444 166.605C192.945 157.983 182.77 158.168 180.898 154.054C180.898 154.054 180.036 167.282 189.003 167.812L186.33 162.836L190.444 166.605Z" fill="white"/>
<path fill-rule="evenodd" clip-rule="evenodd" d="M187.624 149.866C189.558 144.003 182.537 143.867 181.342 140.997C181.342 140.997 180.43 150.087 186.589 150.666L184.877 147.18L187.624 149.866Z" fill="white"/>
<path fill-rule="evenodd" clip-rule="evenodd" d="M192.92 140.812C190.567 136.871 195.642 135.639 196.036 133.348C196.036 133.348 198.18 139.802 193.795 141.219L194.484 138.41L192.92 140.812Z" fill="white"/>
<path fill-rule="evenodd" clip-rule="evenodd" d="M187.463 138.965C190.099 135.319 185.271 133.68 185.074 131.414C185.074 131.414 182.45 137.511 186.577 139.285L186.158 136.476L187.463 138.965Z" fill="white"/>
<path fill-rule="evenodd" clip-rule="evenodd" d="M191.22 131.944C195.211 129.924 191.676 126.241 192.538 124.147C192.538 124.147 187.414 128.335 190.284 131.821L191.183 129.135L191.22 131.944Z" fill="white"/>
<path fill-rule="evenodd" clip-rule="evenodd" d="M232.791 94.8071C232.705 87.2442 224.563 89.9171 222.038 87.0718C222.038 87.0718 224.575 97.9357 231.929 96.1374L228.566 92.7994L232.791 94.8071Z" fill="white"/>
<path fill-rule="evenodd" clip-rule="evenodd" d="M236.745 84.5221C233.826 78.4496 241.389 77.3164 242.276 74.0277C242.276 74.0277 244.554 83.7338 237.977 85.2365L239.332 81.2211L236.745 84.5221Z" fill="white"/>
<path fill-rule="evenodd" clip-rule="evenodd" d="M231.781 79.7672C233.222 73.1775 225.598 73.8303 223.984 70.8372C223.984 70.8372 223.997 80.8142 230.759 80.7526L228.505 77.156L231.781 79.7672Z" fill="white"/>
<path fill-rule="evenodd" clip-rule="evenodd" d="M234.466 70.3321C239.504 67.2528 234.479 62.7816 235.378 59.9363C235.378 59.9363 229.084 65.9841 233.222 70.2705L234.134 66.6492L234.466 70.3321Z" fill="white"/>
<path fill-rule="evenodd" clip-rule="evenodd" d="M234.491 56.2905C237.608 53.4205 239.665 57.8055 241.796 57.7562C241.796 57.7562 236.388 60.8849 234.282 57.165L236.943 57.2636L234.491 56.2905Z" fill="white"/>
<path fill-rule="evenodd" clip-rule="evenodd" d="M244.85 50.6125C247.683 48.0012 249.543 51.9797 251.477 51.9304C251.477 51.9304 246.562 54.7758 244.666 51.4008L247.08 51.487L244.85 50.6125Z" fill="white"/>
<path fill-rule="evenodd" clip-rule="evenodd" d="M246.106 46.1901C249.087 44.3179 246.057 41.6943 246.574 39.9822C246.574 39.9822 242.867 43.6527 245.367 46.1655L245.885 43.9976L246.106 46.1901Z" fill="white"/>
<path fill-rule="evenodd" clip-rule="evenodd" d="M250.504 39.4401C248.373 37.0383 251.711 35.5232 251.686 33.885C251.686 33.885 253.99 38.0483 251.157 39.6126L251.268 37.5802L250.504 39.4401Z" fill="white"/>
<path fill-rule="evenodd" clip-rule="evenodd" d="M232.545 52.7063C236.043 53.002 235.181 49.0727 236.61 48.0134C236.61 48.0134 231.461 48.7155 231.966 52.2383L233.666 50.8095L232.545 52.7063Z" fill="white"/>
<path fill-rule="evenodd" clip-rule="evenodd" d="M239.184 111.189C237.398 104.944 231.239 109.009 228.505 107.223C228.505 107.223 233.075 115.66 238.765 112.495L235.218 110.487L239.184 111.189Z" fill="white"/>
<path fill-rule="evenodd" clip-rule="evenodd" d="M245.663 121.264C244.062 115.635 238.506 119.306 236.043 117.692C236.043 117.692 240.157 125.305 245.281 122.447L242.091 120.636L245.663 121.264Z" fill="white"/>
<path fill-rule="evenodd" clip-rule="evenodd" d="M192.28 118.838C196.936 111.152 203.685 118.85 207.984 117.471C207.984 117.471 198.808 127.066 192.366 120.735L197.835 119.368L192.28 118.838Z" fill="white"/>
<path fill-rule="evenodd" clip-rule="evenodd" d="M202.109 105.597C204.917 98.6989 211.421 104.106 214.759 102.406C214.759 102.406 208.514 111.447 202.429 107.136L206.715 105.289L202.109 105.597Z" fill="white"/>
<path fill-rule="evenodd" clip-rule="evenodd" d="M208.514 92.8239C211.199 86.2095 217.444 91.3828 220.646 89.7569C220.646 89.7569 214.66 98.4283 208.822 94.2897L212.936 92.516L208.514 92.8239Z" fill="white"/>
<path fill-rule="evenodd" clip-rule="evenodd" d="M211.864 81.5166C214.389 75.2963 220.265 80.174 223.27 78.6466C223.27 78.6466 217.641 86.7884 212.16 82.8961L216.015 81.2333L211.864 81.5166Z" fill="white"/>
<path fill-rule="evenodd" clip-rule="evenodd" d="M221.176 65.4915C224.034 60.7863 228.16 65.5161 230.796 64.6786C230.796 64.6786 225.167 70.5416 221.225 66.6617L224.576 65.8241L221.176 65.4915Z" fill="white"/>
<path fill-rule="evenodd" clip-rule="evenodd" d="M290.634 95.9771C296.878 90.8038 289.168 85.7291 289.845 81.689C289.845 81.689 282.479 91.161 288.946 96.1372L289.463 91.0502L290.634 95.9771Z" fill="white"/>
<path fill-rule="evenodd" clip-rule="evenodd" d="M305.119 72.6724C307.361 66.8463 312.904 71.2805 315.675 69.8024C315.675 69.8024 310.576 77.4761 305.402 73.9534L308.974 72.3398L305.119 72.6724Z" fill="white"/>
<path fill-rule="evenodd" clip-rule="evenodd" d="M303.665 65.4302C309.146 63.4471 305.156 58.1136 306.597 55.5516C306.597 55.5516 299.305 60.1583 302.483 65.1222L304.072 61.7965L303.665 65.4302Z" fill="white"/>
<path fill-rule="evenodd" clip-rule="evenodd" d="M312.09 60.8354C316.439 61.4636 315.663 56.4874 317.522 55.2803C317.522 55.2803 311.044 55.773 311.401 60.2072L313.63 58.5567L312.09 60.8354Z" fill="white"/>
<path fill-rule="evenodd" clip-rule="evenodd" d="M311.942 65.184C314.578 61.6366 317.522 65.7136 319.702 65.2456C319.702 65.2456 314.763 69.5074 311.906 66.1078L314.64 65.7013L311.942 65.184Z" fill="white"/>
<path fill-rule="evenodd" clip-rule="evenodd" d="M319.148 61.427C321.452 64.5187 324.014 60.9589 325.91 61.3777C325.91 61.3777 321.599 57.6579 319.111 60.6141L321.501 60.9836L319.148 61.427Z" fill="white"/>
</svg>
